<?xml version="1.0" standalone="no"?>
<!DOCTYPE svg PUBLIC "-//W3C//DTD SVG 20010904//EN"
 "http://www.w3.org/TR/2001/REC-SVG-20010904/DTD/svg10.dtd">
<svg version="1.0" xmlns="http://www.w3.org/2000/svg"
 width="260.000000pt" height="260.000000pt" viewBox="0 0 260.000000 260.000000"
 preserveAspectRatio="xMidYMid meet">
<metadata>
Created by potrace 1.11, written by Peter Selinger 2001-2013
</metadata>
<g transform="translate(0.000000,260.000000) scale(0.100000,-0.100000)"
fill="#000000" stroke="none">
<path d="M100 1300 l0 -1060 615 0 615 0 0 158 0 159 -247 1 c-137 0 -255 1
-263 1 -13 1 -15 83 -15 678 l0 678 -83 0 c-75 0 -82 2 -83 20 -1 11 -2 110
-3 220 l-1 200 -267 3 -268 2 0 -1060z"/>
<path d="M790 2201 l0 -158 228 -1 c125 0 233 -1 240 -1 9 -1 12 -144 12 -679
l0 -679 86 2 c50 1 88 -3 92 -9 4 -6 7 -105 8 -221 l0 -210 262 -3 262 -2 0
900 c0 850 1 900 18 901 9 0 126 1 260 1 l242 1 0 158 0 159 -855 0 -855 0 0
-159z"/>
</g>
</svg>
